<svg width="144" height="41" viewBox="0 0 144 41" fill="none" xmlns="http://www.w3.org/2000/svg">
<path d="M1.65128 24V2.18182H10.7493C12.3828 2.18182 13.75 2.41264 14.8509 2.87429C15.9588 3.33594 16.7898 3.98224 17.3438 4.81321C17.9048 5.64418 18.1854 6.60653 18.1854 7.70028C18.1854 8.53125 18.0114 9.27344 17.6634 9.92685C17.3153 10.5732 16.8359 11.1094 16.2251 11.5355C15.6143 11.9616 14.9077 12.2599 14.1051 12.4304V12.6435C14.9858 12.6861 15.799 12.924 16.5447 13.3572C17.2976 13.7905 17.9013 14.3942 18.3558 15.1683C18.8104 15.9354 19.0376 16.8445 19.0376 17.8956C19.0376 19.0675 18.7393 20.1151 18.1428 21.0384C17.5462 21.9545 16.6832 22.679 15.554 23.2116C14.4247 23.7372 13.054 24 11.4418 24H1.65128ZM6.92472 19.7493H10.1847C11.3281 19.7493 12.1697 19.5327 12.7095 19.0994C13.2564 18.6662 13.5298 18.0625 13.5298 17.2884C13.5298 16.7273 13.3984 16.2443 13.1357 15.8395C12.8729 15.4276 12.5 15.1115 12.017 14.8913C11.5341 14.6641 10.9553 14.5504 10.2805 14.5504H6.92472V19.7493ZM6.92472 11.152H9.84375C10.419 11.152 10.9304 11.0561 11.3778 10.8643C11.8253 10.6726 12.1733 10.3956 12.4219 10.0334C12.6776 9.67116 12.8054 9.23437 12.8054 8.72301C12.8054 7.99148 12.5462 7.41619 12.0277 6.99716C11.5092 6.57813 10.8097 6.36861 9.92898 6.36861H6.92472V11.152ZM21.5732 24V7.63636H26.6335V10.6193H26.804C27.1023 9.53977 27.5888 8.73722 28.2635 8.21165C28.9382 7.67898 29.723 7.41264 30.6179 7.41264C30.8594 7.41264 31.108 7.4304 31.3636 7.46591C31.6193 7.49432 31.8572 7.54048 32.0774 7.6044V12.1321C31.8288 12.0469 31.5021 11.9794 31.0973 11.9297C30.6996 11.88 30.3445 11.8551 30.032 11.8551C29.4141 11.8551 28.8565 11.9936 28.3594 12.2706C27.8693 12.5405 27.4822 12.9205 27.1982 13.4105C26.9212 13.8935 26.7827 14.4616 26.7827 15.1151V24H21.5732ZM38.1978 24.277C37.1538 24.277 36.2269 24.103 35.4173 23.755C34.6147 23.3999 33.979 22.8672 33.5103 22.157C33.0487 21.4396 32.8178 20.5412 32.8178 19.4616C32.8178 18.5526 32.9776 17.7855 33.2972 17.1605C33.6168 16.5355 34.0572 16.0277 34.6183 15.6371C35.1793 15.2464 35.8256 14.9517 36.5572 14.7528C37.2887 14.5469 38.07 14.4084 38.9009 14.3374C39.8313 14.2521 40.5806 14.1634 41.1488 14.071C41.717 13.9716 42.1289 13.8331 42.3846 13.6555C42.6474 13.4709 42.7788 13.2116 42.7788 12.8778V12.8246C42.7788 12.2777 42.5906 11.8551 42.2141 11.5568C41.8377 11.2585 41.3299 11.1094 40.6907 11.1094C40.0018 11.1094 39.4478 11.2585 39.0288 11.5568C38.6097 11.8551 38.3434 12.267 38.2298 12.7926L33.4251 12.6222C33.5671 11.6278 33.9329 10.7401 34.5224 9.95881C35.119 9.17045 35.9357 8.55256 36.9727 8.10511C38.0167 7.65057 39.2702 7.4233 40.7333 7.4233C41.7773 7.4233 42.7397 7.54759 43.6204 7.79616C44.5011 8.03764 45.2681 8.39276 45.9215 8.86151C46.5749 9.32315 47.0792 9.89134 47.4343 10.5661C47.7965 11.2408 47.9776 12.0114 47.9776 12.8778V24H43.0771V21.7202H42.9492C42.658 22.2741 42.2852 22.7429 41.8306 23.1264C41.3832 23.5099 40.854 23.7976 40.2433 23.9893C39.6396 24.1811 38.9577 24.277 38.1978 24.277ZM39.8065 20.8679C40.3675 20.8679 40.8718 20.7543 41.3192 20.527C41.7738 20.2997 42.136 19.9872 42.4059 19.5895C42.6758 19.1847 42.8107 18.7159 42.8107 18.1832V16.6278C42.6616 16.706 42.4805 16.777 42.2674 16.8409C42.0614 16.9048 41.8342 16.9652 41.5856 17.022C41.337 17.0788 41.0813 17.1286 40.8185 17.1712C40.5558 17.2138 40.3036 17.2528 40.0621 17.2884C39.5721 17.3665 39.1531 17.4872 38.805 17.6506C38.4641 17.8139 38.2013 18.027 38.0167 18.2898C37.8391 18.5455 37.7504 18.8509 37.7504 19.206C37.7504 19.7457 37.9421 20.1577 38.3256 20.4418C38.7163 20.7259 39.2099 20.8679 39.8065 20.8679ZM51.163 24V7.63636H56.3725V24H51.163ZM53.7731 5.7294C53.0415 5.7294 52.413 5.48793 51.8874 5.00497C51.3619 4.51491 51.0991 3.92543 51.0991 3.23651C51.0991 2.55469 51.3619 1.9723 51.8874 1.48935C52.413 0.999289 53.0415 0.75426 53.7731 0.75426C54.5117 0.75426 55.1403 0.999289 55.6587 1.48935C56.1843 1.9723 56.4471 2.55469 56.4471 3.23651C56.4471 3.92543 56.1843 4.51491 55.6587 5.00497C55.1403 5.48793 54.5117 5.7294 53.7731 5.7294ZM86.6735 24.3089C84.9618 24.3089 83.4846 23.9716 82.2417 23.2969C81.0059 22.6151 80.0542 21.6456 79.3865 20.3885C78.726 19.1243 78.3958 17.6222 78.3958 15.8821C78.3958 14.1918 78.7296 12.7145 79.3972 11.4503C80.0648 10.179 81.0059 9.19176 82.2203 8.48864C83.4348 7.77841 84.8659 7.4233 86.5137 7.4233C87.6784 7.4233 88.7438 7.6044 89.7097 7.96662C90.6756 8.32883 91.5101 8.86506 92.2132 9.57528C92.9164 10.2855 93.4632 11.1626 93.8539 12.2067C94.2445 13.2436 94.4398 14.4332 94.4398 15.7756V17.0753H80.2175V14.0497H89.5925C89.5854 13.4957 89.454 13.0021 89.1983 12.5689C88.9426 12.1357 88.5911 11.7983 88.1436 11.5568C87.7033 11.3082 87.1955 11.1839 86.6202 11.1839C86.0378 11.1839 85.5158 11.3153 85.0542 11.5781C84.5925 11.8338 84.2267 12.1854 83.9569 12.6328C83.687 13.0732 83.5449 13.5739 83.5307 14.1349V17.2138C83.5307 17.8814 83.6621 18.4673 83.9249 18.9716C84.1877 19.4687 84.5605 19.8558 85.0435 20.1328C85.5265 20.4098 86.1017 20.5483 86.7694 20.5483C87.231 20.5483 87.65 20.4844 88.0265 20.3565C88.4029 20.2287 88.726 20.0405 88.9959 19.7919C89.2658 19.5433 89.4682 19.2379 89.6032 18.8757L94.3865 19.0142C94.1877 20.0866 93.7509 21.0206 93.0762 21.8161C92.4086 22.6044 91.5314 23.2187 90.4448 23.6591C89.3581 24.0923 88.101 24.3089 86.6735 24.3089ZM101.713 24.277C100.669 24.277 99.7425 24.103 98.9329 23.755C98.1303 23.3999 97.4947 22.8672 97.0259 22.157C96.5643 21.4396 96.3335 20.5412 96.3335 19.4616C96.3335 18.5526 96.4933 17.7855 96.8129 17.1605C97.1325 16.5355 97.5728 16.0277 98.1339 15.6371C98.695 15.2464 99.3413 14.9517 100.073 14.7528C100.804 14.5469 101.586 14.4084 102.417 14.3374C103.347 14.2521 104.096 14.1634 104.664 14.071C105.233 13.9716 105.645 13.8331 105.9 13.6555C106.163 13.4709 106.294 13.2116 106.294 12.8778V12.8246C106.294 12.2777 106.106 11.8551 105.73 11.5568C105.353 11.2585 104.846 11.1094 104.206 11.1094C103.517 11.1094 102.963 11.2585 102.544 11.5568C102.125 11.8551 101.859 12.267 101.745 12.7926L96.9407 12.6222C97.0827 11.6278 97.4485 10.7401 98.038 9.95881C98.6346 9.17045 99.4513 8.55256 100.488 8.10511C101.532 7.65057 102.786 7.4233 104.249 7.4233C105.293 7.4233 106.255 7.54759 107.136 7.79616C108.017 8.03764 108.784 8.39276 109.437 8.86151C110.091 9.32315 110.595 9.89134 110.95 10.5661C111.312 11.2408 111.493 12.0114 111.493 12.8778V24H106.593V21.7202H106.465C106.174 22.2741 105.801 22.7429 105.346 23.1264C104.899 23.5099 104.37 23.7976 103.759 23.9893C103.155 24.1811 102.473 24.277 101.713 24.277ZM103.322 20.8679C103.883 20.8679 104.387 20.7543 104.835 20.527C105.289 20.2997 105.652 19.9872 105.922 19.5895C106.191 19.1847 106.326 18.7159 106.326 18.1832V16.6278C106.177 16.706 105.996 16.777 105.783 16.8409C105.577 16.9048 105.35 16.9652 105.101 17.022C104.853 17.0788 104.597 17.1286 104.334 17.1712C104.071 17.2138 103.819 17.2528 103.578 17.2884C103.088 17.3665 102.669 17.4872 102.321 17.6506C101.98 17.8139 101.717 18.027 101.532 18.2898C101.355 18.5455 101.266 18.8509 101.266 19.206C101.266 19.7457 101.458 20.1577 101.841 20.4418C102.232 20.7259 102.725 20.8679 103.322 20.8679ZM114.679 24V7.63636H119.739V10.6193H119.909C120.208 9.53977 120.694 8.73722 121.369 8.21165C122.044 7.67898 122.828 7.41264 123.723 7.41264C123.965 7.41264 124.213 7.4304 124.469 7.46591C124.725 7.49432 124.963 7.54048 125.183 7.6044V12.1321C124.934 12.0469 124.608 11.9794 124.203 11.9297C123.805 11.88 123.45 11.8551 123.137 11.8551C122.52 11.8551 121.962 11.9936 121.465 12.2706C120.975 12.5405 120.588 12.9205 120.304 13.4105C120.027 13.8935 119.888 14.4616 119.888 15.1151V24H114.679ZM132.515 14.6676V24H127.306V7.63636H132.259V10.6406H132.441C132.803 9.6392 133.421 8.8544 134.294 8.28622C135.168 7.71094 136.208 7.4233 137.416 7.4233C138.566 7.4233 139.564 7.68253 140.409 8.20099C141.262 8.71236 141.922 9.42969 142.391 10.353C142.867 11.2692 143.101 12.3416 143.094 13.5703V24H137.884V14.593C137.892 13.6839 137.661 12.9737 137.192 12.4624C136.73 11.951 136.088 11.6953 135.264 11.6953C134.717 11.6953 134.234 11.8161 133.815 12.0575C133.403 12.2919 133.083 12.6293 132.856 13.0696C132.636 13.5099 132.522 14.0426 132.515 14.6676Z" fill="url(#paint0_linear_1_26)"/>
<path d="M66.4 5C66.4 6.32548 65.3255 7.4 64 7.4C62.6745 7.4 61.6 6.32548 61.6 5C61.6 3.67452 62.6745 2.6 64 2.6C65.3255 2.6 66.4 3.67452 66.4 5Z" stroke="url(#paint1_linear_1_26)" stroke-width="2"/>
<path d="M75.4 5C75.4 6.32548 74.3255 7.4 73 7.4C71.6745 7.4 70.6 6.32548 70.6 5C70.6 3.67452 71.6745 2.6 73 2.6C74.3255 2.6 75.4 3.67452 75.4 5Z" stroke="url(#paint2_linear_1_26)" stroke-width="2"/>
<path d="M66.4 13C66.4 14.3255 65.3255 15.4 64 15.4C62.6745 15.4 61.6 14.3255 61.6 13C61.6 11.6745 62.6745 10.6 64 10.6C65.3255 10.6 66.4 11.6745 66.4 13Z" stroke="url(#paint3_linear_1_26)" stroke-width="2"/>
<path d="M75.4 13C75.4 14.3255 74.3255 15.4 73 15.4C71.6745 15.4 70.6 14.3255 70.6 13C70.6 11.6745 71.6745 10.6 73 10.6C74.3255 10.6 75.4 11.6745 75.4 13Z" stroke="url(#paint4_linear_1_26)" stroke-width="2"/>
<path d="M66.4 21C66.4 22.3255 65.3255 23.4 64 23.4C62.6745 23.4 61.6 22.3255 61.6 21C61.6 19.6745 62.6745 18.6 64 18.6C65.3255 18.6 66.4 19.6745 66.4 21Z" stroke="url(#paint5_linear_1_26)" stroke-width="2"/>
<path d="M75.4 21C75.4 22.3255 74.3255 23.4 73 23.4C71.6745 23.4 70.6 22.3255 70.6 21C70.6 19.6745 71.6745 18.6 73 18.6C74.3255 18.6 75.4 19.6745 75.4 21Z" stroke="url(#paint6_linear_1_26)" stroke-width="2"/>
<defs>
<linearGradient id="paint0_linear_1_26" x1="0" y1="10.5" x2="223" y2="10.5" gradientUnits="userSpaceOnUse">
<stop stop-color="#84C1FF"/>
<stop offset="1" stop-color="#7F65DC"/>
</linearGradient>
<linearGradient id="paint1_linear_1_26" x1="64" y1="2.6" x2="64" y2="7.4" gradientUnits="userSpaceOnUse">
<stop stop-color="#BBE2FF"/>
<stop offset="1" stop-color="#858DFF"/>
</linearGradient>
<linearGradient id="paint2_linear_1_26" x1="73" y1="2.6" x2="73" y2="7.4" gradientUnits="userSpaceOnUse">
<stop stop-color="#BBE2FF"/>
<stop offset="1" stop-color="#858DFF"/>
</linearGradient>
<linearGradient id="paint3_linear_1_26" x1="64" y1="10.6" x2="64" y2="15.4" gradientUnits="userSpaceOnUse">
<stop stop-color="#BBE2FF"/>
<stop offset="1" stop-color="#858DFF"/>
</linearGradient>
<linearGradient id="paint4_linear_1_26" x1="73" y1="10.6" x2="73" y2="15.4" gradientUnits="userSpaceOnUse">
<stop stop-color="#BBE2FF"/>
<stop offset="1" stop-color="#858DFF"/>
</linearGradient>
<linearGradient id="paint5_linear_1_26" x1="64" y1="18.6" x2="64" y2="23.4" gradientUnits="userSpaceOnUse">
<stop stop-color="#BBE2FF"/>
<stop offset="1" stop-color="#858DFF"/>
</linearGradient>
<linearGradient id="paint6_linear_1_26" x1="73" y1="18.6" x2="73" y2="23.4" gradientUnits="userSpaceOnUse">
<stop stop-color="#BBE2FF"/>
<stop offset="1" stop-color="#858DFF"/>
</linearGradient>
</defs>
</svg>
